<svg width="396" height="87" viewBox="0 0 396 87" fill="none" xmlns="http://www.w3.org/2000/svg">
<path d="M40.9715 39.1887H42.9418L39.9863 55.8347C39.7932 56.84 39.6386 57.7487 39.5227 58.5607C39.4455 59.334 39.4068 60.03 39.4068 60.6487C39.4068 61.6153 39.5614 62.3307 39.8704 62.7947C40.2181 63.22 40.7977 63.4327 41.609 63.4327C42.9225 63.4327 44.2168 63.0847 45.4917 62.3887C46.8053 61.6927 47.9643 60.7067 48.9688 59.4307C49.9733 58.1547 50.7846 56.6273 51.4027 54.8487C52.0595 53.0313 52.3879 51.0013 52.3879 48.7587C52.3879 45.7813 51.8857 43.152 50.8812 40.8707C49.8767 38.5893 48.4665 36.6753 46.6507 35.1287C44.8349 33.5433 42.6714 32.3447 40.1602 31.5327C37.649 30.7207 34.8866 30.3147 31.8732 30.3147C28.7438 30.3147 25.7883 30.8947 23.0066 32.0547C20.2636 33.2147 17.8683 34.8193 15.8207 36.8687C13.8117 38.918 12.2084 41.3733 11.0107 44.2347C9.8517 47.096 9.27219 50.2087 9.27219 53.5727C9.27219 57.014 9.79375 60.088 10.8369 62.7947C11.9186 65.5013 13.4447 67.7827 15.415 69.6387C17.3854 71.4947 19.742 72.906 22.4851 73.8727C25.2281 74.8393 28.2802 75.3227 31.6414 75.3227C32.7617 75.3227 34.0367 75.1873 35.4661 74.9167C36.8956 74.6847 38.1898 74.2787 39.3489 73.6987L40.5079 77.4107C38.7694 78.1453 37.166 78.6287 35.6979 78.8607C34.2298 79.1313 32.6458 79.2667 30.9459 79.2667C27.353 79.2667 23.9725 78.7253 20.8045 77.6427C17.6751 76.56 14.9321 74.9553 12.5754 72.8287C10.2574 70.702 8.42224 68.0727 7.07004 64.9407C5.71785 61.77 5.04175 58.116 5.04175 53.9787C5.04175 49.764 5.75648 45.9553 7.18594 42.5527C8.65404 39.15 10.6244 36.25 13.097 33.8527C15.5696 31.4553 18.4478 29.6187 21.7317 28.3427C25.0156 27.028 28.4927 26.3707 32.1629 26.3707C35.64 26.3707 38.8659 26.8927 41.8408 27.9367C44.8156 28.942 47.3848 30.4113 49.5483 32.3447C51.7504 34.2393 53.4697 36.5787 54.7059 39.3627C55.9809 42.108 56.6183 45.24 56.6183 48.7587C56.6183 51.2333 56.1934 53.6113 55.3434 55.8927C54.4935 58.1353 53.3344 60.1073 51.8663 61.8087C50.4369 63.51 48.7563 64.8827 46.8246 65.9267C44.8929 66.932 42.8453 67.4347 40.6817 67.4347C39.0591 67.4347 37.7649 67.0867 36.799 66.3907C35.8332 65.6947 35.3502 64.3993 35.3502 62.5047C35.3502 62.1567 35.3696 61.7893 35.4082 61.4027C35.4468 60.9773 35.5048 60.5327 35.582 60.0687H35.3502C34.8094 60.958 34.1719 61.8473 33.4378 62.7367C32.7038 63.5873 31.8732 64.3607 30.9459 65.0567C30.0574 65.7527 29.0915 66.3327 28.0484 66.7967C27.0439 67.222 25.9815 67.4347 24.8611 67.4347C23.9338 67.4347 23.0453 67.2413 22.1953 66.8547C21.3454 66.4293 20.6113 65.83 19.9932 65.0567C19.375 64.2833 18.8728 63.3747 18.4864 62.3307C18.1387 61.248 17.9649 60.03 17.9649 58.6767C17.9649 56.202 18.3705 53.766 19.1818 51.3687C19.9932 48.9713 21.0749 46.8447 22.4271 44.9887C23.8179 43.1327 25.4213 41.644 27.2371 40.5227C29.0915 39.3627 31.0425 38.7827 33.0901 38.7827C34.5196 38.7827 35.6593 38.9953 36.5093 39.4207C37.3592 39.846 38.1898 40.368 39.0012 40.9867L40.9715 39.1887ZM37.6683 44.8727C37.0115 44.0993 36.3547 43.5773 35.6979 43.3067C35.0412 42.9973 34.2105 42.8427 33.206 42.8427C31.6993 42.8427 30.2892 43.3067 28.9756 44.2347C27.662 45.124 26.5223 46.3033 25.5565 47.7727C24.6293 49.2033 23.8759 50.8273 23.2964 52.6447C22.7555 54.4233 22.4851 56.1827 22.4851 57.9227C22.4851 59.4307 22.7941 60.726 23.4123 61.8087C24.0304 62.8527 25.1508 63.3747 26.7735 63.3747C27.5461 63.3747 28.3381 63.1233 29.1495 62.6207C29.9994 62.118 30.83 61.4413 31.6414 60.5907C32.4527 59.7013 33.2254 58.7153 33.9594 57.6327C34.6935 56.55 35.3502 55.448 35.9297 54.3267L37.6683 44.8727ZM67.1338 38.6667H71.7699V67.6667H67.1338V38.6667ZM66.1487 29.8507C66.1487 28.9613 66.4384 28.2073 67.0179 27.5887C67.6361 26.9313 68.4088 26.6027 69.336 26.6027C70.2632 26.6027 71.0552 26.9313 71.712 27.5887C72.3688 28.2073 72.6971 28.9613 72.6971 29.8507C72.6971 30.74 72.3688 31.4747 71.712 32.0547C71.0552 32.6347 70.2632 32.9247 69.336 32.9247C68.4088 32.9247 67.6361 32.6347 67.0179 32.0547C66.4384 31.4747 66.1487 30.74 66.1487 29.8507ZM106.111 67.6667H82.1188V27.0667H86.9288V63.3747H106.111V67.6667ZM109.997 40.8127C111.465 39.9233 113.165 39.266 115.097 38.8407C117.067 38.4153 119.115 38.2027 121.24 38.2027C123.249 38.2027 124.852 38.4733 126.05 39.0147C127.286 39.556 128.213 40.2713 128.831 41.1607C129.488 42.0113 129.913 42.9587 130.106 44.0027C130.338 45.0467 130.454 46.0907 130.454 47.1347C130.454 49.4547 130.396 51.7167 130.28 53.9207C130.164 56.1247 130.106 58.2127 130.106 60.1847C130.106 61.6153 130.164 62.9687 130.28 64.2447C130.396 65.5207 130.609 66.7 130.918 67.7827H127.498L126.281 63.7227H125.992C125.644 64.264 125.2 64.8053 124.659 65.3467C124.157 65.8493 123.538 66.3133 122.804 66.7387C122.07 67.1253 121.22 67.454 120.255 67.7247C119.289 67.9953 118.188 68.1307 116.951 68.1307C115.715 68.1307 114.556 67.9373 113.474 67.5507C112.431 67.164 111.523 66.6227 110.751 65.9267C109.978 65.192 109.36 64.322 108.896 63.3167C108.471 62.3113 108.259 61.1707 108.259 59.8947C108.259 58.1933 108.606 56.782 109.302 55.6607C109.997 54.5007 110.963 53.592 112.199 52.9347C113.474 52.2387 114.981 51.7553 116.72 51.4847C118.497 51.1753 120.448 51.0207 122.573 51.0207C123.114 51.0207 123.635 51.0207 124.137 51.0207C124.678 51.0207 125.219 51.0593 125.76 51.1367C125.876 49.9767 125.934 48.9327 125.934 48.0047C125.934 45.878 125.509 44.3893 124.659 43.5387C123.809 42.688 122.264 42.2627 120.023 42.2627C119.366 42.2627 118.651 42.3207 117.879 42.4367C117.145 42.514 116.372 42.6493 115.561 42.8427C114.788 42.9973 114.034 43.21 113.3 43.4807C112.605 43.7127 111.987 43.9833 111.446 44.2927L109.997 40.8127ZM118.226 64.0707C119.308 64.0707 120.274 63.9353 121.124 63.6647C121.974 63.3553 122.708 62.988 123.326 62.5627C123.944 62.0987 124.446 61.596 124.833 61.0547C125.258 60.5133 125.567 59.9913 125.76 59.4887V54.6747C125.219 54.636 124.659 54.6167 124.079 54.6167C123.538 54.578 122.998 54.5587 122.457 54.5587C121.259 54.5587 120.081 54.636 118.922 54.7907C117.801 54.9067 116.797 55.158 115.908 55.5447C115.058 55.8927 114.363 56.3953 113.822 57.0527C113.32 57.6713 113.069 58.464 113.069 59.4307C113.069 60.784 113.552 61.9053 114.517 62.7947C115.483 63.6453 116.72 64.0707 118.226 64.0707ZM139.21 27.0667H143.846V41.5087H144.078C144.967 40.3873 146.087 39.5173 147.439 38.8987C148.83 38.28 150.337 37.9707 151.959 37.9707C155.707 37.9707 158.508 39.1693 160.362 41.5667C162.255 43.964 163.202 47.676 163.202 52.7027C163.202 57.768 161.966 61.6153 159.493 64.2447C157.021 66.874 153.543 68.1887 149.062 68.1887C146.898 68.1887 144.928 67.9567 143.151 67.4927C141.412 67.0287 140.099 66.526 139.21 65.9847V27.0667ZM151.148 42.0307C149.216 42.0307 147.652 42.572 146.454 43.6547C145.256 44.7373 144.387 46.2647 143.846 48.2367V62.8527C144.58 63.278 145.469 63.6067 146.512 63.8387C147.555 64.032 148.637 64.1287 149.757 64.1287C152.384 64.1287 154.471 63.2007 156.016 61.3447C157.6 59.4887 158.392 56.5887 158.392 52.6447C158.392 51.1367 158.257 49.7253 157.986 48.4107C157.716 47.096 157.291 45.9747 156.711 45.0467C156.132 44.1187 155.379 43.384 154.451 42.8427C153.563 42.3013 152.462 42.0307 151.148 42.0307ZM190.267 56.4147H175.316L171.259 67.6667H166.507L181.864 26.4287H184.067L199.482 67.6667H194.44L190.267 56.4147ZM176.881 52.2387H188.819L184.298 39.8847L182.85 33.7367H182.792L181.343 40.0007L176.881 52.2387ZM201.218 38.6667H205.738V37.0427C205.738 35.264 205.873 33.7173 206.144 32.4027C206.453 31.088 206.936 30.0247 207.593 29.2127C208.249 28.362 209.099 27.7433 210.142 27.3567C211.186 26.9313 212.48 26.7187 214.025 26.7187C215.262 26.7187 216.343 26.796 217.27 26.9507C218.236 27.1053 219.241 27.3953 220.284 27.8207L219.241 31.7067C218.352 31.32 217.502 31.0687 216.691 30.9527C215.918 30.8367 215.184 30.7787 214.489 30.7787C213.484 30.7787 212.692 30.9333 212.113 31.2427C211.572 31.552 211.166 32.016 210.896 32.6347C210.664 33.2147 210.509 33.9493 210.432 34.8387C210.394 35.6893 210.374 36.6947 210.374 37.8547V38.6667H218.082V42.7267H210.374V67.6667H205.738V42.7267H201.218V38.6667ZM236.588 43.1327C235.429 42.746 234.328 42.5527 233.285 42.5527C231.623 42.5527 230.31 43.0167 229.344 43.9447C228.378 44.834 227.779 45.9747 227.547 47.3667V67.6667H222.911V38.6667H226.157L227.026 42.2047H227.258C227.992 40.89 228.861 39.8847 229.865 39.1887C230.909 38.454 232.222 38.0867 233.806 38.0867C234.927 38.0867 236.182 38.28 237.573 38.6667L236.588 43.1327ZM243.591 38.6667H248.227V67.6667H243.591V38.6667ZM242.606 29.8507C242.606 28.9613 242.895 28.2073 243.475 27.5887C244.093 26.9313 244.866 26.6027 245.793 26.6027C246.72 26.6027 247.512 26.9313 248.169 27.5887C248.826 28.2073 249.154 28.9613 249.154 29.8507C249.154 30.74 248.826 31.4747 248.169 32.0547C247.512 32.6347 246.72 32.9247 245.793 32.9247C244.866 32.9247 244.093 32.6347 243.475 32.0547C242.895 31.4747 242.606 30.74 242.606 29.8507ZM277.874 65.7527C276.715 66.6033 275.343 67.2413 273.759 67.6667C272.175 68.1307 270.514 68.3627 268.775 68.3627C266.535 68.3627 264.641 68.0147 263.096 67.3187C261.551 66.584 260.276 65.5593 259.271 64.2447C258.305 62.8913 257.591 61.2867 257.127 59.4307C256.702 57.536 256.49 55.448 256.49 53.1667C256.49 48.256 257.571 44.5053 259.735 41.9147C261.898 39.2853 265.009 37.9707 269.065 37.9707C270.92 37.9707 272.484 38.1253 273.759 38.4347C275.073 38.7053 276.251 39.1113 277.294 39.6527L275.961 43.6547C275.073 43.152 274.088 42.7653 273.006 42.4947C271.924 42.1853 270.765 42.0307 269.529 42.0307C264.043 42.0307 261.3 45.7427 261.3 53.1667C261.3 54.636 261.435 56.0473 261.705 57.4007C262.014 58.7153 262.497 59.8947 263.154 60.9387C263.849 61.944 264.738 62.756 265.82 63.3747C266.94 63.9933 268.312 64.3027 269.934 64.3027C271.325 64.3027 272.561 64.09 273.643 63.6647C274.764 63.2393 275.672 62.756 276.367 62.2147L277.874 65.7527ZM283.794 40.8127C285.262 39.9233 286.962 39.266 288.894 38.8407C290.864 38.4153 292.912 38.2027 295.037 38.2027C297.046 38.2027 298.649 38.4733 299.847 39.0147C301.083 39.556 302.01 40.2713 302.629 41.1607C303.285 42.0113 303.71 42.9587 303.903 44.0027C304.135 45.0467 304.251 46.0907 304.251 47.1347C304.251 49.4547 304.193 51.7167 304.077 53.9207C303.961 56.1247 303.903 58.2127 303.903 60.1847C303.903 61.6153 303.961 62.9687 304.077 64.2447C304.193 65.5207 304.406 66.7 304.715 67.7827H301.296L300.079 63.7227H299.789C299.441 64.264 298.997 64.8053 298.456 65.3467C297.954 65.8493 297.336 66.3133 296.602 66.7387C295.868 67.1253 295.018 67.454 294.052 67.7247C293.086 67.9953 291.985 68.1307 290.749 68.1307C289.512 68.1307 288.353 67.9373 287.271 67.5507C286.228 67.164 285.32 66.6227 284.548 65.9267C283.775 65.192 283.157 64.322 282.693 63.3167C282.268 62.3113 282.056 61.1707 282.056 59.8947C282.056 58.1933 282.404 56.782 283.099 55.6607C283.794 54.5007 284.76 53.592 285.997 52.9347C287.271 52.2387 288.778 51.7553 290.517 51.4847C292.294 51.1753 294.245 51.0207 296.37 51.0207C296.911 51.0207 297.432 51.0207 297.934 51.0207C298.475 51.0207 299.016 51.0593 299.557 51.1367C299.673 49.9767 299.731 48.9327 299.731 48.0047C299.731 45.878 299.306 44.3893 298.456 43.5387C297.606 42.688 296.061 42.2627 293.82 42.2627C293.163 42.2627 292.448 42.3207 291.676 42.4367C290.942 42.514 290.169 42.6493 289.358 42.8427C288.585 42.9973 287.832 43.21 287.098 43.4807C286.402 43.7127 285.784 43.9833 285.243 44.2927L283.794 40.8127ZM292.023 64.0707C293.105 64.0707 294.071 63.9353 294.921 63.6647C295.771 63.3553 296.505 62.988 297.123 62.5627C297.741 62.0987 298.244 61.596 298.63 61.0547C299.055 60.5133 299.364 59.9913 299.557 59.4887V54.6747C299.016 54.636 298.456 54.6167 297.877 54.6167C297.336 54.578 296.795 54.5587 296.254 54.5587C295.056 54.5587 293.878 54.636 292.719 54.7907C291.598 54.9067 290.594 55.158 289.705 55.5447C288.855 55.8927 288.16 56.3953 287.619 57.0527C287.117 57.6713 286.866 58.464 286.866 59.4307C286.866 60.784 287.349 61.9053 288.315 62.7947C289.28 63.6453 290.517 64.0707 292.023 64.0707Z" fill="#EA5E34"/>
<path d="M338.281 39.382H318.809V58H313.999V17.4H318.809V35.09H338.281V17.4H343.091V58H338.281V39.382ZM354.036 17.4H358.846V58H354.036V17.4ZM388.111 47.676C388.111 46.052 387.628 44.7373 386.663 43.732C385.697 42.688 384.48 41.7793 383.012 41.006C381.582 40.194 380.018 39.44 378.318 38.744C376.618 38.048 375.034 37.2167 373.566 36.25C372.136 35.2447 370.939 34.0267 369.973 32.596C369.007 31.1267 368.524 29.2707 368.524 27.028C368.524 23.8573 369.625 21.344 371.827 19.488C374.029 17.632 377.159 16.704 381.215 16.704C383.572 16.704 385.716 16.878 387.648 17.226C389.58 17.574 391.086 18.0187 392.168 18.56L390.719 22.794C389.831 22.3687 388.517 21.9627 386.779 21.576C385.079 21.1893 383.147 20.996 380.983 20.996C378.434 20.996 376.521 21.576 375.246 22.736C373.971 23.8573 373.334 25.1913 373.334 26.738C373.334 28.246 373.817 29.5027 374.783 30.508C375.748 31.5133 376.946 32.422 378.376 33.234C379.844 34.0073 381.428 34.7807 383.128 35.554C384.828 36.3273 386.392 37.236 387.822 38.28C389.29 39.2853 390.507 40.5033 391.473 41.934C392.438 43.3647 392.921 45.1433 392.921 47.27C392.921 49.01 392.612 50.576 391.994 51.968C391.376 53.36 390.468 54.5587 389.27 55.564C388.073 56.5693 386.624 57.3427 384.924 57.884C383.224 58.4253 381.292 58.696 379.129 58.696C376.231 58.696 373.836 58.464 371.943 58C370.05 57.5747 368.582 57.0913 367.539 56.55L369.161 52.2C370.05 52.7027 371.364 53.2053 373.102 53.708C374.841 54.172 376.792 54.404 378.955 54.404C380.23 54.404 381.428 54.288 382.548 54.056C383.668 53.7853 384.634 53.3793 385.446 52.838C386.257 52.258 386.894 51.5427 387.358 50.692C387.86 49.8413 388.111 48.836 388.111 47.676Z" fill="#AFAFAF"/>
</svg>
